<?xml version="1.0" standalone="no"?>
<!DOCTYPE svg PUBLIC "-//W3C//DTD SVG 20010904//EN"
 "http://www.w3.org/TR/2001/REC-SVG-20010904/DTD/svg10.dtd">
<svg version="1.0" xmlns="http://www.w3.org/2000/svg"
 width="1684.000000pt" height="1684.000000pt" viewBox="0 0 1684.000000 1684.000000"
 preserveAspectRatio="xMidYMid meet">
<metadata>
Created by potrace 1.11, written by Peter Selinger 2001-2013
</metadata>
<g transform="translate(0.000000,1684.000000) scale(0.100000,-0.100000)"
fill="#000000" stroke="none">
<path d="M1520 16589 c-645 -74 -1149 -529 -1296 -1169 -16 -70 -17 -339 -25
-3865 -5 -2084 -8 -5167 -6 -6850 2 -2920 3 -3064 21 -3155 105 -544 463 -965
981 -1152 l90 -33 7032 -3 7033 -2 97 31 c228 72 411 185 589 363 228 229 362
485 415 796 19 113 19 209 17 6950 l-3 6835 -27 105 c-75 296 -199 521 -398
720 -114 113 -220 194 -343 260 -164 89 -362 150 -549 170 -121 13 -13516 12
-13628 -1z m13660 -667 c86 -27 214 -88 274 -132 169 -124 296 -313 349 -518
l22 -87 -2 -6720 c-2 -6040 -4 -6727 -18 -6794 -34 -161 -107 -301 -219 -419
-138 -146 -285 -229 -466 -265 -66 -14 -850 -16 -6790 -18 l-6715 -2 -89 21
c-96 24 -227 81 -301 132 -135 93 -266 257 -324 408 -67 173 -61 -431 -59
6977 l3 6720 23 73 c91 294 285 503 562 606 127 47 -271 45 6925 43 l6750 -2
75 -23z"/>
<path d="M1710 15279 c-65 -13 -130 -57 -165 -113 l-30 -49 -3 -6641 c-2
-4492 0 -6652 7 -6676 14 -47 73 -115 125 -143 l41 -22 6638 -3 6638 -2 50 21
c59 26 121 92 137 147 9 30 12 1614 12 6659 0 5781 -2 6626 -15 6662 -21 61
-58 104 -117 137 l-53 29 -6610 1 c-3744 1 -6629 -2 -6655 -7z m5171 -2373
c108 -23 194 -71 279 -156 82 -82 126 -154 159 -264 20 -64 21 -91 21 -452 l0
-384 -1122 -2 -1123 -3 -3 -2330 c-3 -2356 0 -2575 33 -2785 58 -359 190 -636
404 -851 247 -246 566 -381 1051 -446 111 -15 299 -17 1640 -20 1537 -4 1728
-1 1960 33 825 120 1281 579 1375 1382 13 109 15 475 15 2574 l0 2447 -887 3
-888 3 -66 22 c-174 60 -315 204 -376 387 l-27 81 -4 388 -3 387 1466 0 c1294
0 1475 -2 1543 -16 220 -45 381 -193 450 -414 15 -51 17 -256 20 -2850 3
-2902 1 -3086 -38 -3355 -85 -580 -310 -1058 -675 -1434 -453 -466 -1042 -722
-1905 -828 -119 -14 -325 -17 -1740 -20 -1127 -3 -1654 -1 -1770 7 -897 61
-1587 334 -2070 819 -426 428 -668 999 -720 1701 -8 100 -10 1040 -8 3035 l3
2890 22 66 c49 143 155 264 288 330 143 71 77 67 1420 68 1000 1 1221 -2 1276
-13z"/>
</g>
</svg>
