<?xml version="1.0" standalone="no"?>
<!DOCTYPE svg PUBLIC "-//W3C//DTD SVG 20010904//EN"
 "http://www.w3.org/TR/2001/REC-SVG-20010904/DTD/svg10.dtd">
<svg version="1.0" xmlns="http://www.w3.org/2000/svg"
 width="700.000000pt" height="700.000000pt" viewBox="0 0 700.000000 700.000000"
 preserveAspectRatio="xMidYMid meet">
<metadata>
Created by potrace 1.11, written by Peter Selinger 2001-2013
</metadata>
<g transform="translate(0.000000,700.000000) scale(0.100000,-0.100000)"
fill="#000000" stroke="none">
<path d="M350 5464 c-82 -36 -134 -116 -134 -209 0 -113 116 -483 249 -795
234 -548 711 -1352 1071 -1805 109 -137 396 -424 529 -530 377 -301 813 -506
1222 -575 105 -18 157 -21 322 -18 l196 3 75 36 c130 63 225 183 250 318 5 29
10 200 10 378 0 352 2 370 55 411 52 41 165 21 283 -50 217 -131 805 -720 942
-944 60 -99 80 -119 135 -145 37 -17 74 -19 551 -19 l511 0 44 23 c53 28 104
92 120 150 18 67 0 125 -98 304 -149 275 -224 366 -842 1023 -110 117 -213
231 -227 251 -71 103 -33 190 256 594 299 417 594 925 701 1205 46 120 51 141
47 196 -5 74 -37 130 -100 171 l-42 28 -467 3 c-464 3 -468 2 -515 -19 -61
-29 -91 -73 -154 -226 -161 -392 -493 -966 -754 -1303 -111 -144 -278 -309
-346 -343 -67 -33 -126 -36 -164 -6 -59 46 -56 6 -56 887 0 903 2 877 -67 944
-73 71 -39 68 -773 68 -467 0 -668 -3 -683 -11 -38 -19 -57 -51 -57 -98 0 -39
11 -60 122 -220 67 -97 131 -198 143 -226 26 -59 51 -160 66 -265 16 -110 24
-1137 10 -1229 -13 -80 -41 -145 -70 -161 -97 -51 -279 94 -498 400 -273 379
-489 827 -737 1523 -65 182 -74 202 -113 239 -60 58 -63 58 -540 58 -369 -1
-444 -3 -473 -16z"/>
</g>
</svg>
