<?xml version="1.0" encoding="utf-8"?>
<!-- Generator: Adobe Illustrator 24.0.1, SVG Export Plug-In . SVG Version: 6.00 Build 0)  -->
<svg version="1.1" id="book_img" xmlns="http://www.w3.org/2000/svg" xmlns:xlink="http://www.w3.org/1999/xlink" x="0px" y="0px"
	 viewBox="0 0 362.8 409" style="enable-background:new 0 0 362.8 409;" xml:space="preserve">
<style type="text/css">
	.st0{fill:#44444F;}
	.st1{fill-rule:evenodd;clip-rule:evenodd;fill:#65E496;}
	.st2{fill:#3D3D47;}
</style>
<path id="book" class="st0" d="M5,0h258.9c2.8,0,5,2.2,5,5v399c0,2.8-2.2,5-5,5H5c-2.8,0-5-2.2-5-5V5C0,2.2,2.2,0,5,0z"/>
<path id="Rectangle_11_copy_5" class="st1" d="M268.9,294.6l-14.3,8.2c-2.4,1.4-5.5,0.5-6.8-1.9c-1.3-2.4-0.5-5.4,1.8-6.8l19.3-11.1
	"/>
<path id="Rectangle_11_copy_4_1_" class="st1" d="M268.8,267.7l-14.1,8.1c-2.4,1.4-5.5,0.5-6.8-1.9c-1.3-2.4-0.5-5.4,1.8-6.8
	l19.3-11.1"/>
<path class="st2" d="M5,0h26.5c3.6,0,6.4,2.9,6.4,6.4v396.1c0,3.6-2.9,6.4-6.4,6.4H6.4c-3.6,0-6.4-2.9-6.4-6.4V5C0,2.2,2.2,0,5,0z"
	/>
</svg>
