<?xml version="1.0" encoding="utf-8"?>
<!-- Generator: Adobe Illustrator 24.0.1, SVG Export Plug-In . SVG Version: 6.00 Build 0)  -->
<svg version="1.1" id="book_img" xmlns="http://www.w3.org/2000/svg" xmlns:xlink="http://www.w3.org/1999/xlink" x="0px" y="0px"
	 viewBox="0 0 363.8 409" style="enable-background:new 0 0 363.8 409;" xml:space="preserve">
<style type="text/css">
	.st0{fill:#44444F;}
	.st1{fill-rule:evenodd;clip-rule:evenodd;fill:#65E496;}
	.st2{fill:#3D3D47;}
</style>
<path class="st0" d="M268.9,291.3v-7.9l0,0v-23l0,0v-2.7l0,0V5c0-2.8-2.2-5-5-5H5C2.2,0,0,2.2,0,5v399c0,2.8,2.2,5,5,5h258.9
	c2.8,0,5-2.2,5-5L268.9,291.3L268.9,291.3z"/>
<path class="st1" d="M268.9,291.3C268.9,291.3,268.9,291.3,268.9,291.3l0-7.6l-18.3,10.5c-2.4,1.4-3.2,4.4-1.8,6.8
	c1.4,2.4,4.4,3.2,6.8,1.9l13.3-7.7V291.3z"/>
<path class="st1" d="M268.9,260.3C268.9,260.3,268.9,260.3,268.9,260.3l0-2.7c0,0,0,0,0,0v-1l-18.2,10.5c-2.4,1.4-3.2,4.4-1.8,6.8
	c1.4,2.4,4.4,3.2,6.8,1.9l13.2-7.6V260.3z"/>
<rect y="0" class="st2" width="37.9" height="409"/>
</svg>
